<?xml version="1.0" standalone="no"?>
<!DOCTYPE svg PUBLIC "-//W3C//DTD SVG 20010904//EN"
 "http://www.w3.org/TR/2001/REC-SVG-20010904/DTD/svg10.dtd">
<svg version="1.0" xmlns="http://www.w3.org/2000/svg"
 width="1232.000000pt" height="1232.000000pt" viewBox="0 0 1232.000000 1232.000000"
 preserveAspectRatio="xMidYMid meet">
<metadata>
Created by potrace 1.14, written by Peter Selinger 2001-2017
</metadata>
<g transform="translate(0.000000,1232.000000) scale(0.100000,-0.100000)"
fill="#000000" stroke="none">
<path d="M6652 11389 l3 -620 1184 -491 1184 -490 435 435 c240 240 434 438
432 440 -4 3 -1830 761 -3113 1293 l-127 52 2 -619z"/>
<path d="M4020 11333 c-883 -366 -1607 -668 -1610 -670 -2 -2 192 -200 432
-440 l437 -437 1048 434 c576 239 1109 459 1183 490 l135 56 3 617 c2 491 0
617 -10 616 -7 0 -735 -300 -1618 -666z"/>
<path d="M1701 9939 c-5 -13 -305 -737 -666 -1609 -362 -872 -660 -1593 -662
-1603 -5 -16 27 -17 613 -15 l618 3 488 1180 c268 648 488 1184 488 1190 0 5
-196 206 -435 445 -412 412 -434 433 -444 409z"/>
<path d="M10151 9526 c-382 -382 -433 -437 -427 -457 3 -13 223 -548 489
-1189 l483 -1165 617 -3 c339 -1 617 0 617 2 0 5 -1330 3218 -1339 3233 -4 8
-162 -143 -440 -421z"/>
<path d="M4910 9234 c-404 -168 -738 -309 -742 -312 -4 -4 136 -151 312 -327
l319 -319 158 77 c87 42 212 95 278 117 126 43 345 101 380 99 11 0 -29 -12
-90 -25 -174 -40 -397 -118 -563 -199 -84 -41 -151 -78 -148 -83 2 -4 65 22
139 58 187 93 402 169 577 205 41 8 85 17 97 20 l22 5 1 495 c0 272 -1 495 -2
494 -2 0 -334 -137 -738 -305z"/>
<path d="M6650 9031 c0 -276 2 -501 4 -501 3 0 58 -16 123 -36 199 -60 408
-152 571 -251 l75 -45 359 359 359 359 -728 302 c-400 166 -736 304 -745 308
-17 6 -18 -22 -18 -495z"/>
<path d="M6650 8511 c0 -6 19 -15 43 -21 181 -47 430 -150 603 -250 57 -33
106 -60 109 -60 41 0 -153 114 -322 190 -100 44 -332 127 -405 144 -16 4 -28
2 -28 -3z"/>
<path d="M3380 8041 c-40 -97 -176 -426 -303 -731 -126 -305 -233 -565 -238
-577 l-9 -23 349 0 348 0 38 117 c85 266 216 522 377 737 32 43 60 82 61 86 1
4 -122 133 -274 288 l-277 280 -72 -177z"/>
<path d="M8499 7870 c-184 -187 -335 -344 -337 -350 -2 -5 10 -29 26 -52 111
-162 233 -417 303 -630 l42 -128 459 0 c434 0 460 1 455 18 -5 19 -607 1475
-612 1480 -1 2 -153 -150 -336 -338z"/>
<path d="M3967 7583 c-106 -140 -218 -329 -292 -493 -53 -117 -140 -369 -131
-378 9 -8 9 -7 60 143 78 230 211 488 354 684 26 35 53 72 61 82 8 12 9 19 3
19 -6 0 -31 -26 -55 -57z"/>
<path d="M8138 7505 c-3 -3 17 -40 45 -83 109 -164 232 -428 292 -624 14 -49
30 -88 36 -88 13 0 14 -3 -36 145 -67 200 -165 405 -277 578 -28 42 -51 77
-53 77 -1 0 -4 -2 -7 -5z"/>
<path d="M2833 5723 c6 -9 372 -890 523 -1256 l98 -238 217 217 c203 203 218
220 205 239 -39 60 -142 246 -170 308 -77 169 -177 464 -175 515 0 9 15 -37
34 -103 68 -245 184 -508 302 -686 27 -41 56 -56 31 -16 -184 288 -329 671
-374 980 -7 50 -20 62 -27 25 l-4 -23 -2 23 -1 22 -331 0 c-181 0 -328 -3
-326 -7z m674 -80 c-3 -10 -5 -4 -5 12 0 17 2 24 5 18 2 -7 2 -21 0 -30z m21
-98 c0 -16 -2 -15 -8 5 -4 14 -8 36 -8 50 0 22 1 22 8 -5 4 -16 8 -39 8 -50z"/>
<path d="M8526 5624 c-38 -225 -123 -482 -231 -692 -29 -56 -48 -105 -44 -108
20 -12 181 351 224 504 10 34 20 61 22 58 14 -14 -78 -261 -164 -439 l-67
-138 285 -285 285 -285 303 732 c166 402 305 737 308 745 4 12 -62 14 -434 14
l-440 0 -10 -57 -11 -58 5 58 c9 96 -11 64 -31 -49z m19 -64 c-4 -23 -9 -39
-11 -37 -3 2 -2 23 2 46 4 23 9 40 11 37 3 -3 2 -23 -2 -46z m-25 -110 c-7
-28 -14 -49 -16 -47 -3 2 1 27 8 55 6 29 13 50 16 47 2 -2 -1 -27 -8 -55z"/>
<path d="M374 5703 c26 -69 1330 -3210 1335 -3215 4 -4 202 188 441 427 l434
435 -16 42 c-9 24 -194 471 -411 993 -216 523 -429 1037 -473 1142 l-79 193
-619 0 c-585 0 -618 -1 -612 -17z"/>
<path d="M10211 4553 c-267 -643 -486 -1177 -488 -1188 -3 -15 100 -124 431
-454 412 -412 436 -434 444 -410 6 13 305 737 667 1609 361 872 659 1591 662
1598 4 9 -122 12 -613 12 l-619 0 -484 -1167z"/>
<path d="M7579 4054 c-29 -35 -291 -200 -420 -263 -136 -68 -301 -133 -436
-171 -40 -12 -73 -25 -73 -30 0 -5 33 1 73 12 135 38 92 19 -60 -28 -10 -3
-13 -77 -13 -329 l0 -325 44 18 c24 9 359 148 744 307 l701 290 -257 257
c-222 223 -259 256 -273 245 -114 -84 -312 -207 -424 -264 -133 -67 -332 -149
-341 -140 -3 2 35 18 83 36 120 42 331 146 450 221 119 75 233 159 233 171 0
14 -16 11 -31 -7z"/>
<path d="M4586 3951 c26 -26 203 -129 309 -181 138 -67 267 -116 433 -166 65
-19 99 -32 77 -28 -63 9 -319 97 -437 149 -88 39 -273 140 -376 205 -21 14
-29 8 -228 -191 l-206 -206 99 -41 c54 -23 339 -141 633 -263 294 -122 582
-241 640 -265 58 -24 108 -44 113 -44 4 0 7 136 7 303 l0 304 -101 17 c-55 10
-99 20 -96 22 2 3 46 -3 96 -12 50 -9 95 -14 98 -10 10 9 8 10 -142 39 -288
57 -600 183 -848 341 -52 33 -94 49 -71 27z"/>
<path d="M2848 2223 l-438 -438 1606 -665 c884 -366 1612 -666 1620 -668 12
-3 14 92 14 612 l0 616 -22 10 c-16 7 -2032 842 -2333 966 -5 2 -207 -193
-447 -433z"/>
<path d="M8730 2541 c-157 -65 -645 -268 -1085 -450 -440 -183 -844 -350 -897
-372 l-98 -41 0 -614 c0 -421 3 -614 10 -614 11 0 3221 1329 3229 1336 5 5
-860 874 -869 874 -3 0 -133 -54 -290 -119z"/>
</g>
</svg>
